<?xml version="1.0" standalone="no"?>
<!DOCTYPE svg PUBLIC "-//W3C//DTD SVG 20010904//EN"
 "http://www.w3.org/TR/2001/REC-SVG-20010904/DTD/svg10.dtd">
<svg version="1.0" xmlns="http://www.w3.org/2000/svg"
 width="870.000000pt" height="623.000000pt" viewBox="0 0 870.000000 623.000000"
 preserveAspectRatio="xMidYMid meet">
<metadata>
Created by potrace 1.15, written by Peter Selinger 2001-2017
</metadata>
<g transform="translate(0.000000,623.000000) scale(0.100000,-0.100000)"
fill="#000000" stroke="none">
<path d="M4624 5903 c-38 -7 -101 -70 -117 -117 -13 -39 -13 -48 3 -95 20 -60
39 -84 85 -105 48 -23 1040 -24 1084 -1 68 35 108 118 91 189 -12 54 -38 87
-90 114 -44 22 -44 22 -540 21 -272 -1 -505 -4 -516 -6z m1042 -39 c102 -48
107 -176 10 -248 -27 -21 -38 -21 -534 -21 -489 0 -508 1 -541 20 -93 55 -92
188 1 245 32 19 52 20 531 20 440 0 503 -2 533 -16z"/>
<path d="M4587 5439 c-63 -33 -97 -109 -83 -184 8 -43 59 -103 103 -121 27
-12 252 -14 1261 -14 l1228 0 44 23 c52 26 78 59 90 113 12 49 -2 103 -36 144
-55 64 38 60 -1326 60 -1224 -1 -1244 -1 -1281 -21z m2567 -39 c60 -53 69
-128 24 -193 -43 -61 38 -57 -1310 -57 -1213 0 -1234 0 -1266 20 -91 56 -95
182 -7 240 29 20 52 20 1277 20 l1247 0 35 -30z"/>
<path d="M4604 5001 c-43 -20 -86 -68 -99 -111 -4 -14 -12 -27 -16 -31 -13 -8
53 -130 82 -152 14 -10 43 -22 65 -27 57 -14 1650 -13 1712 1 152 32 185 229
53 311 l-36 23 -860 2 c-823 3 -862 2 -901 -16z m1773 -28 c39 -18 70 -61 79
-110 10 -51 -27 -117 -80 -143 -43 -20 -50 -20 -897 -18 l-854 3 -33 23 c-90
64 -80 195 18 244 33 17 96 18 883 18 772 0 852 -2 884 -17z"/>
<path d="M2700 4778 c-110 -31 -170 -156 -126 -261 17 -42 76 -93 123 -107 26
-8 209 -10 585 -8 l546 3 43 30 c116 82 111 252 -11 323 l-45 27 -540 2 c-341
1 -553 -2 -575 -9z m1112 -28 c44 -13 103 -75 113 -120 15 -70 -20 -147 -85
-180 -39 -20 -51 -20 -594 -18 -545 3 -555 3 -583 24 -49 37 -73 82 -73 139 0
66 29 112 90 143 44 22 45 22 570 22 324 0 539 -4 562 -10z"/>
<path d="M6305 4517 c-115 -66 -111 -239 8 -296 44 -21 45 -21 999 -19 l955 3
36 28 c49 37 67 75 67 140 0 60 -23 104 -73 141 -28 21 -32 21 -990 23 l-962
3 -40 -23z m1973 -27 c86 -53 86 -187 -1 -240 -31 -19 -57 -20 -982 -20 -914
0 -951 1 -979 19 -43 29 -66 70 -66 121 0 51 23 92 66 121 28 18 65 19 979 19
936 0 950 0 983 -20z"/>
<path d="M4617 4086 c-142 -52 -156 -241 -24 -314 29 -15 73 -17 497 -17 l465
0 37 23 c106 66 109 221 5 290 l-41 27 -450 2 c-364 2 -458 0 -489 -11z m949
-37 c43 -20 84 -81 84 -124 0 -43 -41 -104 -84 -124 -41 -20 -58 -21 -482 -21
-489 0 -485 -1 -531 69 -46 69 -19 165 57 203 32 16 76 18 474 18 424 0 441
-1 482 -21z"/>
<path d="M6336 4085 c-53 -19 -93 -60 -111 -115 -14 -41 -14 -50 1 -93 18 -54
67 -101 121 -116 55 -16 748 -13 788 2 75 29 115 86 115 162 0 82 -48 144
-127 164 -66 17 -738 14 -787 -4z m820 -41 c92 -68 92 -170 0 -238 -26 -20
-41 -21 -409 -24 -427 -3 -428 -2 -474 67 -46 69 -19 165 57 204 32 16 68 17
417 15 368 -3 383 -4 409 -24z"/>
<path d="M6312 3629 c-118 -59 -122 -231 -7 -296 l40 -23 537 3 c527 2 537 2
565 23 51 38 73 81 73 144 0 69 -26 114 -85 147 l-40 23 -520 0 c-510 0 -521
0 -563 -21z m1115 -29 c65 -39 87 -138 44 -199 -45 -63 -28 -61 -603 -61 -495
0 -525 1 -552 19 -66 44 -86 131 -46 196 41 66 29 65 605 65 498 0 521 -1 552
-20z"/>
<path d="M483 3346 c-59 -19 -99 -50 -130 -104 -23 -38 -28 -59 -28 -113 0
-56 5 -73 30 -115 19 -30 49 -60 79 -79 l49 -30 651 -3 c467 -2 666 0 705 8
137 30 216 194 153 316 -28 55 -93 109 -147 123 -67 17 -1306 14 -1362 -3z
m1375 -32 c108 -45 158 -173 106 -275 -19 -38 -78 -87 -121 -99 -27 -8 -239
-10 -698 -8 l-660 3 -38 24 c-109 68 -128 220 -39 309 21 21 53 43 72 49 24 7
243 11 688 12 569 1 657 -1 690 -15z"/>
<path d="M2660 1171 c-19 -11 -43 -28 -53 -38 -21 -24 -69 -143 -58 -143 5 0
11 -15 15 -32 10 -52 51 -104 98 -127 44 -21 53 -21 682 -21 612 0 638 1 675
20 63 32 111 105 111 170 0 65 -58 152 -117 176 -26 11 -157 14 -675 14 -606
-1 -645 -2 -678 -19z m1349 -26 c45 -23 79 -71 87 -120 5 -36 2 -54 -17 -92
-13 -26 -37 -56 -52 -67 -28 -21 -41 -21 -673 -24 -639 -2 -646 -2 -682 18
-60 34 -77 65 -77 140 0 51 5 72 22 96 47 66 21 64 726 64 541 0 642 -2 666
-15z"/>
</g>
</svg>
